<?xml version="1.0" encoding="utf-8"?>
<!-- Generator: Adobe Illustrator 27.7.0, SVG Export Plug-In . SVG Version: 6.00 Build 0)  -->
<svg version="1.1" id="Layer_1" xmlns="http://www.w3.org/2000/svg" xmlns:xlink="http://www.w3.org/1999/xlink" x="0px" y="0px"
	 viewBox="0 0 54 40" style="enable-background:new 0 0 54 40;" xml:space="preserve">
<style type="text/css">
	.st0{fill:#FFFFFF;}
</style>
<path class="st0" d="M38,13c0,0.55-0.45,1-1,1h-1c-0.55,0-1-0.45-1-1V7c0-0.55,0.45-1,1-1h1c0.55,0,1,0.45,1,1V13z M43,13
	c0,0.55-0.45,1-1,1h-1c-0.55,0-1-0.45-1-1V7c0-0.55,0.45-1,1-1h1c0.55,0,1,0.45,1,1V13z"/>
<g>
	<path class="st0" d="M50,1c1.65,0,3,1.35,3,3v12c0,1.65-1.35,3-3,3H4c-1.65,0-3-1.35-3-3V4c0-1.65,1.35-3,3-3H50 M50,0H4
		C1.79,0,0,1.79,0,4v12c0,2.21,1.79,4,4,4h46c2.21,0,4-1.79,4-4V4C54,1.79,52.21,0,50,0L50,0z"/>
</g>
<g>
	<path class="st0" d="M25.1,3H4.9C3.85,3,3,3.85,3,4.9V15.1C3,16.15,3.85,17,4.9,17H25.1c1.05,0,1.9-0.85,1.9-1.9V4.9
		C27,3.85,26.15,3,25.1,3z M11.71,13.74V6.51c0-0.3,0.32-0.48,0.58-0.33l6.17,3.61c0.26,0.15,0.26,0.52,0,0.67l-6.17,3.61
		C12.04,14.22,11.71,14.04,11.71,13.74z"/>
</g>
<path class="st0" d="M49.1,23H28.9c-1.05,0-1.9,0.85-1.9,1.9V35.1c0,1.05,0.85,1.9,1.9,1.9H49.1c1.05,0,1.9-0.85,1.9-1.9V24.9
	C51,23.85,50.15,23,49.1,23z M38,33c0,0.55-0.45,1-1,1h-1c-0.55,0-1-0.45-1-1v-6c0-0.55,0.45-1,1-1h1c0.55,0,1,0.45,1,1V33z M43,33
	c0,0.55-0.45,1-1,1h-1c-0.55,0-1-0.45-1-1v-6c0-0.55,0.45-1,1-1h1c0.55,0,1,0.45,1,1V33z"/>
<g>
	<path class="st0" d="M50,21c1.65,0,3,1.35,3,3v12c0,1.65-1.35,3-3,3H4c-1.65,0-3-1.35-3-3V24c0-1.65,1.35-3,3-3H50 M50,20H4
		c-2.21,0-4,1.79-4,4v12c0,2.21,1.79,4,4,4h46c2.21,0,4-1.79,4-4V24C54,21.79,52.21,20,50,20L50,20z"/>
</g>
<g>
	<path class="st0" d="M11.71,33.74v-7.23c0-0.3,0.32-0.48,0.58-0.33l6.17,3.61c0.26,0.15,0.26,0.52,0,0.67l-6.17,3.61
		C12.04,34.22,11.71,34.04,11.71,33.74z"/>
</g>
</svg>
