<svg xmlns="http://www.w3.org/2000/svg" xmlns:xlink="http://www.w3.org/1999/xlink" id="Layer_1" x="0px" y="0px" viewBox="0 0 199.15 50.14" style="enable-background:new 0 0 199.15 50.14;" xml:space="preserve">
<style type="text/css">
	.st0{fill:#FFFFFF;}
	.st1{fill:#F26A2F;}
</style>
<g>
	<path class="st0" d="M47.09,13.27c0-4.37,3.24-7.69,7.69-7.69c3.59,0,6.78,2.17,7.34,5.92h-3.94c-0.46-1.61-1.85-2.39-3.4-2.39   c-2.33,0-3.83,1.72-3.81,4.15c-0.03,2.47,1.53,4.15,3.78,4.15c1.58,0,2.98-0.8,3.43-2.41h3.94c-0.59,3.89-3.83,5.95-7.37,5.95   C50.33,20.96,47.09,17.64,47.09,13.27z"></path>
	<path class="st0" d="M79.31,13.27c0,4.45-3.38,7.69-7.69,7.69c-4.29,0-7.67-3.27-7.67-7.69c0-4.45,3.43-7.69,7.67-7.69   C75.88,5.57,79.31,8.82,79.31,13.27z M67.81,13.27c0,2.44,1.66,4.05,3.81,4.05c2.14,0,3.81-1.61,3.81-4.05   c0-2.41-1.66-4.05-3.81-4.05C69.47,9.22,67.81,10.86,67.81,13.27z"></path>
	<path class="st0" d="M81.75,0h3.83v20.64h-3.83V0z"></path>
	<path class="st0" d="M103.38,13.27c0,4.45-3.38,7.69-7.69,7.69c-4.29,0-7.67-3.27-7.67-7.69c0-4.45,3.43-7.69,7.67-7.69   C99.95,5.57,103.38,8.82,103.38,13.27z M91.88,13.27c0,2.44,1.66,4.05,3.81,4.05c2.14,0,3.81-1.61,3.81-4.05   c0-2.41-1.66-4.05-3.81-4.05C93.54,9.22,91.88,10.86,91.88,13.27z"></path>
	<path class="st0" d="M115.09,5.63v3.94c-0.29-0.03-0.51-0.05-0.94-0.05c-2.44,0-4.53,1.07-4.53,4.56v6.57h-3.83V5.9h3.83v2.57   c0.91-1.93,2.52-2.89,4.61-2.89C114.58,5.57,114.85,5.6,115.09,5.63z"></path>
	<path class="st0" d="M51.53,24.26c0,1.08-0.82,1.87-1.95,1.87c-1.08,0-1.92-0.79-1.92-1.87c0-1.05,0.84-1.81,1.92-1.81   C50.72,22.45,51.53,23.21,51.53,24.26z M48.11,28.97h2.97v14.46h-2.97V28.97z"></path>
	<path class="st0" d="M67.28,34.31v9.13h-2.97v-8.52c0-2.24-0.97-3.42-3.16-3.42c-2.55,0-3.92,1.66-3.92,4.44v7.5h-2.97V28.97h2.97   v2.39c1.03-1.68,2.58-2.71,4.84-2.71C65.34,28.65,67.28,30.78,67.28,34.31z"></path>
	<path class="st0" d="M81.14,42.7c-0.79,0.47-2.47,1.05-4.13,1.05c-2.97,0-5.29-1.87-5.29-5.86v-6.13h-2.68v-2.79h2.68v-3.29   l2.97-0.66v3.94h5.94v2.79H74.7v5.97c0,2.1,0.97,3.26,2.84,3.26c0.92,0,1.95-0.32,3.08-0.71L81.14,42.7z"></path>
	<path class="st0" d="M97.21,37.01H85.46c0.24,2.66,2.1,4.13,4.52,4.13c1.74,0,3.18-0.74,3.87-2.16h3.08   c-1.13,3.23-3.89,4.76-6.97,4.76c-4.39,0-7.52-3.16-7.52-7.52s3.1-7.57,7.47-7.57C94.56,28.65,97.5,32.25,97.21,37.01z M85.61,34.6   h8.42c-0.45-1.97-1.95-3.37-4.13-3.37C87.64,31.23,86.11,32.65,85.61,34.6z"></path>
	<path class="st0" d="M99.87,23.18h3v20.25h-3V23.18z"></path>
	<g>
		<path class="st0" d="M115,24.08c0,1.08-0.82,1.87-1.95,1.87c-1.08,0-1.92-0.79-1.92-1.87c0-1.05,0.84-1.81,1.92-1.81    C114.19,22.26,115,23.02,115,24.08z M111.59,28.78h2.97v14.46h-2.97V28.78z"></path>
		<path class="st0" d="M131.97,28.78v14.28c0,4.31-2.71,7.07-7,7.07c-3.44,0-6.57-1.79-7.21-5.39h3.08c0.5,1.87,2.1,2.73,4.05,2.73    c2.66,0,4.1-1.5,4.1-4.31V40.7c-1.08,1.6-2.81,2.71-5.05,2.71c-3.87,0-6.68-3.13-6.68-7.47c0-4.34,2.87-7.47,6.68-7.47    c2.24,0,4,1.13,5.05,2.79v-2.47H131.97z M129.02,35.94c0-2.68-1.92-4.63-4.44-4.63c-2.52,0-4.31,1.95-4.31,4.63    c0,2.71,1.81,4.63,4.31,4.63C127.1,40.56,129.02,38.65,129.02,35.94z"></path>
		<path class="st0" d="M149.48,36.83h-11.76c0.24,2.66,2.1,4.13,4.52,4.13c1.74,0,3.18-0.74,3.87-2.16h3.08    c-1.13,3.23-3.89,4.76-6.97,4.76c-4.39,0-7.52-3.16-7.52-7.52s3.1-7.57,7.47-7.57C146.83,28.47,149.77,32.07,149.48,36.83z     M137.88,34.41h8.42c-0.45-1.97-1.95-3.37-4.13-3.37C139.91,31.04,138.38,32.47,137.88,34.41z"></path>
		<path class="st0" d="M165.13,34.12v9.13h-2.97v-8.52c0-2.24-0.97-3.42-3.16-3.42c-2.55,0-3.92,1.66-3.92,4.44v7.5h-2.97V28.78    h2.97v2.39c1.03-1.68,2.58-2.71,4.84-2.71C163.18,28.47,165.13,30.6,165.13,34.12z"></path>
		<path class="st0" d="M167.73,36.02c0-4.31,3.21-7.55,7.52-7.55c3.42,0,6.44,2.08,7.1,5.58h-3.08c-0.55-1.81-2.16-2.81-4.02-2.81    c-2.68,0-4.52,2-4.52,4.79c0,2.81,1.89,4.79,4.5,4.79c1.89,0,3.5-1.05,4.05-2.84h3.08c-0.68,3.58-3.73,5.6-7.13,5.6    C170.94,43.56,167.73,40.33,167.73,36.02z"></path>
		<path class="st0" d="M199.13,36.83h-11.76c0.24,2.66,2.1,4.13,4.52,4.13c1.74,0,3.18-0.74,3.87-2.16h3.08    c-1.13,3.23-3.89,4.76-6.97,4.76c-4.39,0-7.52-3.16-7.52-7.52s3.1-7.57,7.47-7.57C196.48,28.47,199.42,32.07,199.13,36.83z     M187.54,34.41h8.42c-0.45-1.97-1.95-3.37-4.13-3.37C189.56,31.04,188.04,32.47,187.54,34.41z"></path>
	</g>
	<rect y="6.17" class="st1" width="37.65" height="37.65"></rect>
	<path class="st0" d="M105.5,23.18h3v20.25h-3V23.18z"></path>
</g>
</svg>