<svg width="626" height="193" viewBox="0 0 626 193" fill="none" xmlns="http://www.w3.org/2000/svg">
<path d="M96.1334 192.325C43.1216 192.325 0 149.325 0 96.5002C0 43.6754 43.1216 0.675293 96.1334 0.675293C149.145 0.675293 192.267 43.6585 192.267 96.5002C192.267 149.342 149.145 192.325 96.1334 192.325ZM96.1334 24.0091C56.0328 24.0091 23.4089 56.5283 23.4089 96.5002C23.4089 136.472 56.0328 169.008 96.1334 169.008C136.234 169.008 168.875 136.489 168.875 96.5002C168.875 56.5114 136.234 23.9922 96.1334 23.9922V24.0091Z" fill="white"/>
<path d="M533.091 192.094C481.869 192.094 440.182 150.449 440.182 99.2795V3.55103H463.284V99.2961C463.284 137.744 494.587 169.032 533.091 169.032C571.595 169.032 602.898 137.761 602.898 99.2961V3.55103H626V99.2961C626 150.466 584.313 192.11 533.091 192.11V192.094Z" fill="white"/>
<path d="M217.683 189.799L338.997 42.8488C344.128 36.641 339.689 27.2705 331.622 27.2705L217.953 27.2368V3.90308L401.393 3.97037L280.163 150.803C275.032 157.028 279.471 166.381 287.555 166.381L401.005 166.23L401.038 189.547L217.666 189.799H217.683Z" fill="white"/>
</svg>
